<svg width="32" height="32" viewBox="0 0 32 32" fill="none" xmlns="http://www.w3.org/2000/svg">
<path d="M13.2411 22.875H9.75C9.58424 22.875 9.42527 22.8092 9.30806 22.6919C9.19085 22.5747 9.125 22.4158 9.125 22.25V18.7589C9.125 18.6768 9.14117 18.5955 9.17258 18.5197C9.20398 18.4439 9.25002 18.375 9.30806 18.3169L18.6831 8.94195C18.8003 8.82474 18.9592 8.75889 19.125 8.75889C19.2908 8.75889 19.4497 8.82474 19.5669 8.94195L23.0581 12.4331C23.1753 12.5503 23.2411 12.7092 23.2411 12.875C23.2411 13.0408 23.1753 13.1997 23.0581 13.3169L13.6831 22.6919C13.625 22.75 13.5561 22.796 13.4803 22.8274C13.4045 22.8588 13.3232 22.875 13.2411 22.875Z" stroke="#3B3B3B" stroke-width="1.5" stroke-linecap="round" stroke-linejoin="round"/>
<path d="M16.625 11L21 15.375" stroke="#3B3B3B" stroke-width="1.5" stroke-linecap="round" stroke-linejoin="round"/>
<path d="M13.4601 22.8351L9.16479 18.5397" stroke="#3B3B3B" stroke-width="1.5" stroke-linecap="round" stroke-linejoin="round"/>
</svg>
